<mxfile host="app.diagrams.net" modified="2024-06-01T12:58:06.803Z" agent="Mozilla/5.0 (Windows NT 10.0; Win64; x64) AppleWebKit/537.36 (KHTML, like Gecko) Chrome/125.0.0.0 Safari/537.36" version="24.4.13" etag="HXNzLTsN5CyY9s_G32sS" type="github">
  <diagram id="4pliiZuHe3KjLavlDM4Y" name="Page-1">
    <mxGraphModel dx="1434" dy="820" grid="1" gridSize="10" guides="1" tooltips="1" connect="1" arrows="1" fold="1" page="1" pageScale="1" pageWidth="850" pageHeight="1100" math="0" shadow="0">
      <root>
        <mxCell id="0" />
        <mxCell id="1" parent="0" />
        <UserObject label="&lt;pre&gt;     ┌────┐                ┌───────────────┐          ┌───────┐            ┌────────┐&#xa;     │User│                │Web Application│          │Backend│            │Database│&#xa;     └─┬──┘                └───────┬───────┘          └───┬───┘            └───┬────┘&#xa;       │   Open Registration Page  │                      │                    │     &#xa;       │ ──────────────────────────&gt;                      │                    │     &#xa;       │                           │                      │                    │     &#xa;       │ Enter Registration Details│                      │                    │     &#xa;       │ ──────────────────────────&gt;                      │                    │     &#xa;       │                           │                      │                    │     &#xa;       │  Submit Registration Form │                      │                    │     &#xa;       │ ──────────────────────────&gt;                      │                    │     &#xa;       │                           │                      │                    │     &#xa;       │                           │      Create User     │                    │     &#xa;       │                           │ ─────────────────────&gt;                    │     &#xa;       │                           │                      │                    │     &#xa;       │                           │                      │ Insert User Details│     &#xa;       │                           │                      │ ───────────────────&gt;     &#xa;       │                           │                      │                    │     &#xa;       │                           │                      │  Confirm Insertion │     &#xa;       │                           │                      │ &lt;───────────────────     &#xa;       │                           │                      │                    │     &#xa;       │                           │ Confirm User Created │                    │     &#xa;       │                           │ &lt;─────────────────────                    │     &#xa;       │                           │                      │                    │     &#xa;       │ Show Registration Success │                      │                    │     &#xa;       │ &lt;──────────────────────────                      │                    │     &#xa;     ┌─┴──┐                ┌───────┴───────┐          ┌───┴───┐            ┌───┴────┐&#xa;     │User│                │Web Application│          │Backend│            │Database│&#xa;     └────┘                └───────────────┘          └───────┘            └────────┘&#xa;&lt;/pre&gt;" plantUmlData="{&#xa;  &quot;data&quot;: &quot;@startuml\nskinparam shadowing false\nUser -&gt; \&quot;Web Application\&quot;: Open Registration Page\nUser -&gt; \&quot;Web Application\&quot;: Enter Registration Details\nUser -&gt; \&quot;Web Application\&quot;: Submit Registration Form\n\&quot;Web Application\&quot; -&gt; Backend: Create User\nBackend -&gt; Database: Insert User Details\nDatabase -&gt; Backend: Confirm Insertion\nBackend -&gt; \&quot;Web Application\&quot;: Confirm User Created\n\&quot;Web Application\&quot; -&gt; User: Show Registration Success\n@enduml&quot;,&#xa;  &quot;format&quot;: &quot;txt&quot;&#xa;}" id="rizr9gleuudnAxfqRxbO-5">
          <mxCell style="text;html=1;align=left;verticalAlign=top;" vertex="1" parent="1">
            <mxGeometry x="90" y="70" width="580" height="450" as="geometry" />
          </mxCell>
        </UserObject>
      </root>
    </mxGraphModel>
  </diagram>
</mxfile>
